<svg id="SvgjsSvg1316" width="256" height="256" xmlns="http://www.w3.org/2000/svg" version="1.1" xmlns:xlink="http://www.w3.org/1999/xlink" xmlns:svgjs="http://svgjs.com/svgjs"><defs id="SvgjsDefs1317"></defs><g id="SvgjsG1318"><svg xmlns="http://www.w3.org/2000/svg" viewBox="0 0 36 36" width="256" height="256"><path fill="#efefef" d="M27.623 31.833c-6.917 0-11.667 3.583-15 3.583S2.29 33.5 2.29 18.167 11.707.583 15.373.583c17.167 0 24.5 31.25 12.25 31.25z" class="colorEFEFEF svgShape"></path><path fill="#a4afc1" d="m31.68 3.808 1.414-1.415.707.707-1.415 1.415zM32.033 6.99l.707-.707 1.415 1.415-.707.707zM27.966 2.924l.707-.707 1.414 1.414-.707.707z" class="colorA4AFC1 svgShape"></path><path fill="#2fdf84" d="M18 23.25s5.25-2.321 5.25-6.964v-3.929L18 10.75l-5.25 1.607v3.929c0 4.643 5.25 6.964 5.25 6.964z" class="color2FDF84 svgShape"></path><path fill="#00b871" d="M15 16.286v-3.929l4.125-1.263L18 10.75l-5.25 1.607v3.929c0 4.643 5.25 6.964 5.25 6.964s.471-.211 1.125-.623C17.583 21.656 15 19.545 15 16.286z" class="color00B871 svgShape"></path><path d="M18 24a.747.747 0 0 1-.304-.064c-.232-.103-5.696-2.578-5.696-7.65v-3.929c0-.33.215-.621.53-.717l5.25-1.607a.73.73 0 0 1 .439 0l5.25 1.607c.315.096.53.387.53.717v3.929c0 5.072-5.464 7.547-5.696 7.649A.725.725 0 0 1 18 24zm-4.5-11.088v3.374c0 3.494 3.442 5.571 4.499 6.127 1.056-.558 4.501-2.646 4.501-6.127v-3.374L18 11.534l-4.5 1.378zM18 28.044v-1.5c5.25 0 9.521-4.271 9.521-9.522h1.5c0 6.078-4.944 11.022-11.021 11.022z" fill="#000000" class="color000 svgShape"></path><path d="M26.972 13.866A9.5 9.5 0 0 0 18 7.5c-2.169 0-4.198.71-5.87 2.054l-.94-1.168A10.749 10.749 0 0 1 18 6c4.682 0 8.855 2.963 10.388 7.374l-1.416.492zm-12.64 13.542C9.935 25.868 6.98 21.693 6.98 17.02c0-2.228.657-4.359 1.902-6.165l1.234.852A9.326 9.326 0 0 0 8.48 17.02c0 4.038 2.551 7.644 6.348 8.973l-.496 1.415zm5.136 2.903-2.487-2.486a.749.749 0 0 1 0-1.06l2.487-2.487 1.061 1.061-1.957 1.957 1.957 1.956-1.061 1.059z" fill="#000000" class="color000 svgShape"></path><path d="m9.814 14.517-.76-2.835-2.835.76-.389-1.449 3.56-.954a.747.747 0 0 1 .919.53l.954 3.56-1.449.388zm17.967.416a.738.738 0 0 1-.374-.101l-3.19-1.842.75-1.299 2.541 1.467 1.468-2.541 1.299.75-1.843 3.19a.75.75 0 0 1-.651.376zM17.5 19a.747.747 0 0 1-.53-.22l-2.28-2.28 1.061-1.061 1.73 1.729 3.23-3.479 1.099 1.021-3.76 4.05a.756.756 0 0 1-.536.239L17.5 19z" fill="#000000" class="color000 svgShape"></path></svg></g></svg>