<svg id="SvgjsSvg1282" width="256" height="256" xmlns="http://www.w3.org/2000/svg" version="1.1" xmlns:xlink="http://www.w3.org/1999/xlink" xmlns:svgjs="http://svgjs.com/svgjs"><defs id="SvgjsDefs1283"></defs><g id="SvgjsG1284"><svg xmlns="http://www.w3.org/2000/svg" viewBox="0 0 36 36" width="256" height="256"><path fill="#efefef" d="M8.377 31.833c6.917 0 11.667 3.583 15 3.583S33.71 33.5 33.71 18.167 24.293.583 20.627.583c-17.167 0-24.5 31.25-12.25 31.25z" class="colorEFEFEF svgShape"></path><path fill="#a4afc1" d="M31 32.5c-.827 0-1.5-.673-1.5-1.5s.673-1.5 1.5-1.5 1.5.673 1.5 1.5-.673 1.5-1.5 1.5zm0-2a.5.5 0 1 0 0 1 .5.5 0 0 0 0-1zM3.5 0h1v2h-1zM3.5 5.75h1v2h-1zM0 3.25h2v1H0zM5.75 3.25h2v1h-2z" class="colorA4AFC1 svgShape"></path><path fill="#f3f3f1" d="m18.13 15.08 4.62-8.33h4.5l-5.95 10.8z" class="colorF3F3F1 svgShape"></path><circle cx="18" cy="23" r="6.25" fill="#2fdf84" class="color2FDF84 svgShape"></circle><path fill="#2fdf84" d="M18.25 26.25v-5.5h-.5z" class="color2FDF84 svgShape"></path><path fill="#00b871" d="M13.75 23A6.247 6.247 0 0 1 19 16.837a6.218 6.218 0 0 0-1-.087 6.25 6.25 0 1 0 0 12.5c.341 0 .674-.035 1-.087A6.247 6.247 0 0 1 13.75 23z" class="color00B871 svgShape"></path><path fill="#f3f3f1" d="M19.163 16.845 13.25 6.75h-4.5l5.95 10.8z" class="colorF3F3F1 svgShape"></path><path fill="#d5dbe1" d="M10.75 6.75h-2l5.95 10.8 1.84-.291zM20.13 15.08l4.62-8.33h-2l-4.62 8.33 1.401 1.092z" class="colorD5DBE1 svgShape"></path><path d="M14.701 18.299a.75.75 0 0 1-.658-.388l-5.95-10.8A.747.747 0 0 1 8.75 6h4.5c.266 0 .513.141.647.371l5.913 10.095a.75.75 0 0 1-.814 1.11c-1.933-.439-3.917.621-3.936.632a.751.751 0 0 1-.359.091zM10.02 7.5l5.002 9.08c.628-.251 1.629-.568 2.761-.606L12.82 7.5h-2.8z" fill="#000000" class="color000 svgShape"></path><path d="m21.957 17.912-1.313-.724L25.98 7.5h-2.789l-4.406 7.944-1.312-.728 4.62-8.33A.755.755 0 0 1 22.75 6h4.5a.75.75 0 0 1 .657 1.112l-5.95 10.8z" fill="#000000" class="color000 svgShape"></path><path d="M18 30c-3.86 0-7-3.14-7-7s3.14-7 7-7a7.008 7.008 0 0 1 6.825 8.564l-1.463-.333A5.506 5.506 0 0 0 18 17.5c-3.033 0-5.5 2.467-5.5 5.5s2.467 5.5 5.5 5.5a5.46 5.46 0 0 0 4.413-2.216l1.202.896A7.034 7.034 0 0 1 18 30z" fill="#000000" class="color000 svgShape"></path><path d="M19 27h-1.5v-5.5H17V20h1.25a.75.75 0 0 1 .75.75V27z" fill="#000000" class="color000 svgShape"></path></svg></g></svg>